%TF.GenerationSoftware,KiCad,Pcbnew,8.0.4*%
%TF.CreationDate,2024-09-06T18:43:01+02:00*%
%TF.ProjectId,Kokpit Final,4b6f6b70-6974-4204-9669-6e616c2e6b69,rev?*%
%TF.SameCoordinates,Original*%
%TF.FileFunction,Soldermask,Top*%
%TF.FilePolarity,Negative*%
%FSLAX46Y46*%
G04 Gerber Fmt 4.6, Leading zero omitted, Abs format (unit mm)*
G04 Created by KiCad (PCBNEW 8.0.4) date 2024-09-06 18:43:01*
%MOMM*%
%LPD*%
G01*
G04 APERTURE LIST*
G04 Aperture macros list*
%AMRoundRect*
0 Rectangle with rounded corners*
0 $1 Rounding radius*
0 $2 $3 $4 $5 $6 $7 $8 $9 X,Y pos of 4 corners*
0 Add a 4 corners polygon primitive as box body*
4,1,4,$2,$3,$4,$5,$6,$7,$8,$9,$2,$3,0*
0 Add four circle primitives for the rounded corners*
1,1,$1+$1,$2,$3*
1,1,$1+$1,$4,$5*
1,1,$1+$1,$6,$7*
1,1,$1+$1,$8,$9*
0 Add four rect primitives between the rounded corners*
20,1,$1+$1,$2,$3,$4,$5,0*
20,1,$1+$1,$4,$5,$6,$7,0*
20,1,$1+$1,$6,$7,$8,$9,0*
20,1,$1+$1,$8,$9,$2,$3,0*%
G04 Aperture macros list end*
%ADD10C,3.800000*%
%ADD11R,1.700000X1.700000*%
%ADD12O,1.700000X1.700000*%
%ADD13C,1.400000*%
%ADD14O,1.400000X1.400000*%
%ADD15C,2.109000*%
%ADD16C,1.728000*%
%ADD17RoundRect,0.102000X-0.762000X-0.762000X0.762000X-0.762000X0.762000X0.762000X-0.762000X0.762000X0*%
G04 APERTURE END LIST*
D10*
%TO.C,\u015Bruba*%
X41500000Y-48500000D03*
%TD*%
%TO.C,\u015Bruba*%
X91500000Y-25000000D03*
%TD*%
%TO.C,\u015Bruba*%
X91500000Y-48500000D03*
%TD*%
D11*
%TO.C,Kuf. lewy*%
X41000000Y-26000000D03*
D12*
X41000000Y-28540000D03*
X41000000Y-31080000D03*
%TD*%
D11*
%TO.C,Zasilanie*%
X48000000Y-26000000D03*
D12*
X48000000Y-28540000D03*
%TD*%
D11*
%TO.C,Kuf. prawy*%
X41000000Y-36000000D03*
D12*
X41000000Y-38540000D03*
X41000000Y-41080000D03*
%TD*%
D11*
%TO.C,Temp. wew.*%
X83500000Y-43960000D03*
D12*
X83500000Y-46500000D03*
X83500000Y-49040000D03*
%TD*%
D11*
%TO.C,Temp. zew.*%
X71500000Y-44000000D03*
D12*
X71500000Y-46540000D03*
X71500000Y-49080000D03*
%TD*%
D13*
%TO.C,4\u002C7 kOhm*%
X87500000Y-48500000D03*
D14*
X87500000Y-43420000D03*
%TD*%
D13*
%TO.C,4\u002C7 kOhm*%
X75500000Y-48580000D03*
D14*
X75500000Y-43500000D03*
%TD*%
D11*
%TO.C,LCD*%
X90000000Y-32000000D03*
D12*
X90000000Y-34540000D03*
X90000000Y-37080000D03*
X90000000Y-39620000D03*
%TD*%
D15*
%TO.C,ESP32-C3 Super Mini*%
X52450000Y-27650000D03*
X52450000Y-30190000D03*
X52450000Y-32730000D03*
X52450000Y-35270000D03*
X52450000Y-37810000D03*
X52450000Y-40350000D03*
X52450000Y-42890000D03*
X52450000Y-45430000D03*
X67690000Y-45430000D03*
X67690000Y-42890000D03*
X67690000Y-40350000D03*
X67690000Y-37810000D03*
X67690000Y-35270000D03*
X67690000Y-32730000D03*
X67690000Y-30190000D03*
X67690000Y-27650000D03*
%TD*%
D16*
%TO.C,4 kan. konwerter*%
X84500000Y-34195000D03*
X74340000Y-34195000D03*
X84500000Y-31655000D03*
D17*
X84500000Y-26575000D03*
D16*
X84500000Y-29115000D03*
X84500000Y-36735000D03*
X84500000Y-39275000D03*
X74340000Y-31655000D03*
D17*
X74340000Y-26575000D03*
D16*
X74340000Y-29115000D03*
X74340000Y-36735000D03*
X74340000Y-39275000D03*
%TD*%
M02*
