M48
; DRILL file {KiCad 8.0.4} date 2024-09-06T18:43:08+0200
; FORMAT={-:-/ absolute / inch / decimal}
; #@! TF.CreationDate,2024-09-06T18:43:08+02:00
; #@! TF.GenerationSoftware,Kicad,Pcbnew,8.0.4
; #@! TF.FileFunction,Plated,1,2,PTH
FMAT,2
INCH
; #@! TA.AperFunction,Plated,PTH,ViaDrill
T1C0.0197
; #@! TA.AperFunction,Plated,PTH,ComponentDrill
T2C0.0276
; #@! TA.AperFunction,Plated,PTH,ComponentDrill
T3C0.0394
; #@! TA.AperFunction,Plated,PTH,ComponentDrill
T4C0.0400
; #@! TA.AperFunction,Plated,PTH,ComponentDrill
T5C0.0500
; #@! TA.AperFunction,Plated,PTH,ComponentDrill
T6C0.0866
%
G90
G05
T1
X2.7953Y-1.3189
T2
X2.9724Y-1.7126
X2.9724Y-1.9126
X3.4449Y-1.7094
X3.4449Y-1.9094
T3
X1.6142Y-1.0236
X1.6142Y-1.1236
X1.6142Y-1.2236
X1.6142Y-1.4173
X1.6142Y-1.5173
X1.6142Y-1.6173
X1.8898Y-1.0236
X1.8898Y-1.1236
X2.815Y-1.7323
X2.815Y-1.8323
X2.815Y-1.9323
X3.2874Y-1.7307
X3.2874Y-1.8307
X3.2874Y-1.9307
X3.5433Y-1.2598
X3.5433Y-1.3598
X3.5433Y-1.4598
X3.5433Y-1.5598
T4
X2.9268Y-1.0463
X2.9268Y-1.1463
X2.9268Y-1.2463
X2.9268Y-1.3463
X2.9268Y-1.4463
X2.9268Y-1.5463
X3.3268Y-1.0463
X3.3268Y-1.1463
X3.3268Y-1.2463
X3.3268Y-1.3463
X3.3268Y-1.4463
X3.3268Y-1.5463
T5
X2.065Y-1.0886
X2.065Y-1.1886
X2.065Y-1.2886
X2.065Y-1.3886
X2.065Y-1.4886
X2.065Y-1.5886
X2.065Y-1.6886
X2.065Y-1.7886
X2.665Y-1.0886
X2.665Y-1.1886
X2.665Y-1.2886
X2.665Y-1.3886
X2.665Y-1.4886
X2.665Y-1.5886
X2.665Y-1.6886
X2.665Y-1.7886
T6
X1.6339Y-1.9094
X3.6024Y-0.9843
X3.6024Y-1.9094
M30
